<?xml version="1.0" encoding="UTF-8"?>
<!DOCTYPE svg PUBLIC "-//W3C//DTD SVG 1.1//EN" "http://www.w3.org/Graphics/SVG/1.1/DTD/svg11.dtd">
<svg xmlns="http://www.w3.org/2000/svg" version="1.1" width="50px" height="50px" style="shape-rendering:geometricPrecision; text-rendering:geometricPrecision; image-rendering:optimizeQuality; fill-rule:evenodd; clip-rule:evenodd" xmlns:xlink="http://www.w3.org/1999/xlink">
<g><path style="opacity:0.629" fill="#fefffe" d="M 15.5,6.5 C 21.8421,6.33379 28.1754,6.50046 34.5,7C 44.9791,11.3805 48.8124,19.2138 46,30.5C 44.1667,36.3333 40.3333,40.1667 34.5,42C 28.1667,42.6667 21.8333,42.6667 15.5,42C 5.02093,37.6195 1.18759,29.7862 4,18.5C 6.01885,12.6498 9.85218,8.64984 15.5,6.5 Z M 16.5,9.5 C 33.7649,9.25669 39.5982,17.2567 34,33.5C 27.7488,40.0107 20.5821,41.1773 12.5,37C 5.98934,30.7488 4.82267,23.5821 9,15.5C 11.1141,12.8792 13.6141,10.8792 16.5,9.5 Z M 35.5,11.5 C 40.9332,14.0168 43.5998,18.3501 43.5,24.5C 43.5998,30.6499 40.9332,34.9832 35.5,37.5C 40.8333,28.8333 40.8333,20.1667 35.5,11.5 Z"/></g>
<g><path style="opacity:0.655" fill="#fefffe" d="M 20.5,13.5 C 23.4097,14.7939 25.7431,16.7939 27.5,19.5C 27,19.8333 26.5,20.1667 26,20.5C 24.6043,19.6057 23.1043,18.9391 21.5,18.5C 19.9996,18.4528 18.9996,19.1195 18.5,20.5C 21.2279,22.253 24.0612,23.9196 27,25.5C 28.437,30.5762 26.6037,33.9095 21.5,35.5C 17.5352,34.2139 15.5352,31.5472 15.5,27.5C 16.5,27.5 17.5,27.5 18.5,27.5C 19.5868,31.8815 21.5868,32.3815 24.5,29C 24.3552,28.228 24.0219,27.5613 23.5,27C 20.8976,26.0229 18.3976,24.8563 16,23.5C 15.3333,21.8333 15.3333,20.1667 16,18.5C 17.713,16.9241 19.213,15.2574 20.5,13.5 Z"/></g>
</svg>
