<?xml version="1.0" encoding="UTF-8"?>
<!DOCTYPE svg PUBLIC "-//W3C//DTD SVG 1.1//EN" "http://www.w3.org/Graphics/SVG/1.1/DTD/svg11.dtd">
<svg xmlns="http://www.w3.org/2000/svg" version="1.1" width="60px" height="60px" style="shape-rendering:geometricPrecision; text-rendering:geometricPrecision; image-rendering:optimizeQuality; fill-rule:evenodd; clip-rule:evenodd" xmlns:xlink="http://www.w3.org/1999/xlink">
<g><path style="opacity:0.912" fill="#fefffe" d="M 38.5,7.5 C 41.9179,8.18821 45.2512,9.18821 48.5,10.5C 50.4594,10.1252 52.2927,9.45852 54,8.5C 54.2649,10.1626 53.7649,11.6626 52.5,13C 53.4491,13.6172 54.2825,13.4506 55,12.5C 55.0901,15.4623 53.7568,17.7957 51,19.5C 49.8158,39.0177 39.4825,49.6843 20,51.5C 13.9343,51.2559 8.43434,49.4226 3.5,46C 8.51874,45.8824 13.1854,44.5491 17.5,42C 13.0567,40.9468 10.0567,38.2801 8.5,34C 9.16667,33.6667 9.83333,33.3333 10.5,33C 8.44758,32.0701 6.94758,30.5701 6,28.5C 6.37073,24.2861 6.20406,20.1194 5.5,16C 5.49445,13.7002 5.99445,11.5336 7,9.5C 12.7227,16.0712 19.8894,19.7378 28.5,20.5C 28.1485,13.1986 31.4819,8.86524 38.5,7.5 Z"/></g>
</svg>
