<?xml version="1.0" encoding="UTF-8"?>
<!DOCTYPE svg PUBLIC "-//W3C//DTD SVG 1.1//EN" "http://www.w3.org/Graphics/SVG/1.1/DTD/svg11.dtd">
<svg xmlns="http://www.w3.org/2000/svg" version="1.1" width="100px" height="100px" style="shape-rendering:geometricPrecision; text-rendering:geometricPrecision; image-rendering:optimizeQuality; fill-rule:evenodd; clip-rule:evenodd" xmlns:xlink="http://www.w3.org/1999/xlink">
<g><path style="opacity:0.755" fill="#fefffe" d="M 18.5,5.5 C 21.1873,5.33591 23.854,5.50258 26.5,6C 32.056,12.9451 36.7227,20.4451 40.5,28.5C 39.1525,32.6957 37.1525,36.529 34.5,40C 41.3333,49.5 49.5,57.6667 59,64.5C 63.3699,60.2305 68.5366,58.7305 74.5,60C 80.7531,64.0429 86.9197,68.2095 93,72.5C 94.5476,75.0515 94.5476,77.7182 93,80.5C 89.5349,84.9668 85.7016,89.1334 81.5,93C 71.1558,93.9979 61.8225,91.3312 53.5,85C 38.3333,73.8333 25.1667,60.6667 14,45.5C 7.66879,37.1775 5.00213,27.8442 6,17.5C 10.0621,13.2688 14.2288,9.26879 18.5,5.5 Z M 20.5,10.5 C 22.3904,10.2965 23.8904,10.9632 25,12.5C 28,17.1667 31,21.8333 34,26.5C 34.6667,27.8333 34.6667,29.1667 34,30.5C 31.4657,33.8927 29.7991,37.5593 29,41.5C 37.3532,52.6867 47.1866,62.3534 58.5,70.5C 61.9603,68.8674 65.2936,67.034 68.5,65C 69.8333,64.3333 71.1667,64.3333 72.5,65C 77.5802,68.6237 82.7468,72.1237 88,75.5C 88.6667,76.5 88.6667,77.5 88,78.5C 85.6176,81.4272 83.1176,84.2605 80.5,87C 77.634,88.4568 74.634,88.7901 71.5,88C 58.1185,82.307 46.4518,74.1404 36.5,63.5C 26.2134,54.0506 18.0468,43.0506 12,30.5C 10.0873,26.4708 10.0873,22.4708 12,18.5C 14.7291,15.6007 17.5624,12.934 20.5,10.5 Z"/></g>
</svg>
