<?xml version="1.0" encoding="UTF-8"?>
<!DOCTYPE svg PUBLIC "-//W3C//DTD SVG 1.1//EN" "http://www.w3.org/Graphics/SVG/1.1/DTD/svg11.dtd">
<svg xmlns="http://www.w3.org/2000/svg" version="1.1" width="60px" height="60px" style="shape-rendering:geometricPrecision; text-rendering:geometricPrecision; image-rendering:optimizeQuality; fill-rule:evenodd; clip-rule:evenodd" xmlns:xlink="http://www.w3.org/1999/xlink">
<g><path style="opacity:0.934" fill="#fefffe" d="M 11.5,5.5 C 23.5046,5.33346 35.5046,5.50013 47.5,6C 48.4162,6.37424 49.2496,6.87424 50,7.5C 51.6349,23.0742 51.9683,38.7409 51,54.5C 48.9361,55.5914 46.7695,55.7581 44.5,55C 43.6634,53.9887 43.33,52.8221 43.5,51.5C 34.1667,51.5 24.8333,51.5 15.5,51.5C 15.67,52.8221 15.3366,53.9887 14.5,55C 12.2305,55.7581 10.0639,55.5914 8,54.5C 7.33333,39.5 7.33333,24.5 8,9.5C 8.68972,7.64977 9.85639,6.31643 11.5,5.5 Z M 21.5,9.5 C 26.8437,9.33398 32.1771,9.50065 37.5,10C 38.8333,11 38.8333,12 37.5,13C 32.1667,13.6667 26.8333,13.6667 21.5,13C 20.3157,11.8545 20.3157,10.6879 21.5,9.5 Z M 11.5,17.5 C 23.5,17.5 35.5,17.5 47.5,17.5C 47.7935,21.4367 47.4601,25.27 46.5,29C 40.8927,30.1161 35.2261,30.9495 29.5,31.5C 23.7739,30.9495 18.1073,30.1161 12.5,29C 11.5399,25.27 11.2065,21.4367 11.5,17.5 Z M 13.5,38.5 C 18.1585,38.0146 19.4919,39.848 17.5,44C 12.7282,44.8104 11.3948,42.9771 13.5,38.5 Z M 41.5,38.5 C 46.1585,38.0146 47.4919,39.848 45.5,44C 40.7282,44.8104 39.3948,42.9771 41.5,38.5 Z"/></g>
</svg>
