<?xml version="1.0" encoding="UTF-8"?>
<!DOCTYPE svg PUBLIC "-//W3C//DTD SVG 1.1//EN" "http://www.w3.org/Graphics/SVG/1.1/DTD/svg11.dtd">
<svg xmlns="http://www.w3.org/2000/svg" version="1.1" width="100px" height="100px" style="shape-rendering:geometricPrecision; text-rendering:geometricPrecision; image-rendering:optimizeQuality; fill-rule:evenodd; clip-rule:evenodd" xmlns:xlink="http://www.w3.org/1999/xlink">
<g><path style="opacity:0.952" fill="#000000" d="M 39.5,3.5 C 67.9223,0.452161 86.4223,12.4522 95,39.5C 98.5361,67.9428 86.7027,86.4428 59.5,95C 31.0572,98.5361 12.5572,86.7027 4,59.5C 0.672469,31.0314 12.5058,12.3647 39.5,3.5 Z M 47.5,19.5 C 48.8333,19.5 50.1667,19.5 51.5,19.5C 51.5,21.5 51.5,23.5 51.5,25.5C 58.3675,26.6991 62.7009,30.6991 64.5,37.5C 63.3493,38.731 62.1827,38.731 61,37.5C 60.1532,30.824 56.3199,27.4907 49.5,27.5C 42.3024,27.6982 38.3024,31.3649 37.5,38.5C 37.9404,41.2138 39.2738,43.3805 41.5,45C 47.3807,47.3048 53.3807,49.3048 59.5,51C 67.3672,57.5817 67.3672,64.2483 59.5,71C 56.978,72.3409 54.3113,73.1743 51.5,73.5C 51.5,75.5 51.5,77.5 51.5,79.5C 50.1667,79.5 48.8333,79.5 47.5,79.5C 48.3844,74.6117 46.3844,72.1117 41.5,72C 36.6684,68.8446 34.0018,64.3446 33.5,58.5C 34.675,58.281 35.675,58.6143 36.5,59.5C 39.3065,70.0566 45.9732,73.5566 56.5,70C 62.9554,65.8896 63.9554,60.7229 59.5,54.5C 53.3185,51.8967 46.9852,49.7301 40.5,48C 32.5136,40.6185 32.8469,33.6185 41.5,27C 43.4357,26.187 45.4357,25.687 47.5,25.5C 47.5,23.5 47.5,21.5 47.5,19.5 Z"/></g>
</svg>
