<svg xmlns="http://www.w3.org/2000/svg" xmlns:xlink="http://www.w3.org/1999/xlink" viewBox="0,0,256,256" width="50px" height="50px" fill-rule="nonzero"><g fill-opacity="0" fill="#dddddd" fill-rule="nonzero" stroke="none" stroke-width="1" stroke-linecap="butt" stroke-linejoin="miter" stroke-miterlimit="10" stroke-dasharray="" stroke-dashoffset="0" font-family="none" font-weight="none" font-size="none" text-anchor="none" style="mix-blend-mode: normal"><path d="M0,256v-256h256v256z" id="bgRectangle"></path></g><g fill="#ffffff" fill-rule="nonzero" stroke="none" stroke-width="1" stroke-linecap="butt" stroke-linejoin="miter" stroke-miterlimit="10" stroke-dasharray="" stroke-dashoffset="0" font-family="none" font-weight="none" font-size="none" text-anchor="none" style="mix-blend-mode: normal"><g transform="scale(5.12,5.12)"><path d="M14,4c-5.51133,0 -10,4.48867 -10,10v22c0,5.51133 4.48867,10 10,10h22c5.51133,0 10,-4.48867 10,-10v-22c0,-5.51133 -4.48867,-10 -10,-10zM14,6h22c4.43067,0 8,3.56933 8,8v22c0,4.43067 -3.56933,8 -8,8h-22c-4.43067,0 -8,-3.56933 -8,-8v-22c0,-4.43067 3.56933,-8 8,-8zM13,15c-1.64497,0 -3,1.35503 -3,3v14c0,1.64497 1.35503,3 3,3h24c1.64497,0 3,-1.35503 3,-3v-14c0,-1.64497 -1.35503,-3 -3,-3zM13.41406,17h23.16992l-8.90625,8.89258c-1.49279,1.49041 -3.8809,1.49024 -5.37305,-0.00195zM38,18.41211v13.17578l-6.59766,-6.58789zM12,18.41406l6.58594,6.58594l-6.58594,6.58594zM29.98828,26.41211l6.59766,6.58789h-23.17188l6.58594,-6.58594l0.89063,0.89063c2.25585,2.25585 5.94201,2.25751 8.19922,0.00391z"></path></g></g></svg>