<?xml version="1.0" encoding="UTF-8"?>
<!DOCTYPE svg PUBLIC "-//W3C//DTD SVG 1.1//EN" "http://www.w3.org/Graphics/SVG/1.1/DTD/svg11.dtd">
<svg xmlns="http://www.w3.org/2000/svg" version="1.1" width="100px" height="100px" style="shape-rendering:geometricPrecision; text-rendering:geometricPrecision; image-rendering:optimizeQuality; fill-rule:evenodd; clip-rule:evenodd; color:black" xmlns:xlink="http://www.w3.org/1999/xlink">
<g><path style="opacity:0.844" fill="black" d="M 99.5,58.5 C 99.5,67.5 99.5,76.5 99.5,85.5C 98.0384,86.4577 96.7051,87.6244 95.5,89C 93.5273,89.4955 91.5273,89.6621 89.5,89.5C 88.7238,93.9399 86.3904,97.2732 82.5,99.5C 79.1667,99.5 75.8333,99.5 72.5,99.5C 68.6096,97.2732 66.2762,93.9399 65.5,89.5C 54.8333,89.5 44.1667,89.5 33.5,89.5C 32.7238,93.9399 30.3904,97.2732 26.5,99.5C 23.1667,99.5 19.8333,99.5 16.5,99.5C 12.6096,97.2732 10.2762,93.9399 9.5,89.5C 5.83798,89.9661 2.50464,89.2994 -0.5,87.5C -0.5,71.1667 -0.5,54.8333 -0.5,38.5C 1.79717,34.7133 5.13051,32.2133 9.5,31C 32.5,30.3333 55.5,30.3333 78.5,31C 82.5437,31.2728 86.0437,32.7728 89,35.5C 92.8055,43.1077 96.3055,50.7744 99.5,58.5 Z M 10.5,35.5 C 34.2189,35.0404 57.8856,35.5404 81.5,37C 82.6721,37.4186 83.6721,38.0853 84.5,39C 80.5,39.3333 76.5,39.6667 72.5,40C 71.3333,40.5 70.5,41.3333 70,42.5C 69.2124,48.2195 69.3791,53.8862 70.5,59.5C 71.0253,60.1924 71.6919,60.6924 72.5,61C 79.8258,61.4997 87.1591,61.6663 94.5,61.5C 94.9875,65.3091 95.3208,69.1424 95.5,73C 95.6696,76.8643 95.0029,80.5309 93.5,84C 92.0563,84.7805 90.723,84.6139 89.5,83.5C 85.2692,75.5258 78.9358,73.3591 70.5,77C 67.4044,79.0287 65.7377,81.862 65.5,85.5C 54.8333,85.5 44.1667,85.5 33.5,85.5C 30.5153,75.6796 24.182,72.8463 14.5,77C 11.4044,79.0287 9.73771,81.862 9.5,85.5C 7.27759,85.822 5.44425,85.1554 4,83.5C 3.0681,68.7783 3.40143,54.1116 5,39.5C 6.49981,37.5313 8.33314,36.198 10.5,35.5 Z M 14.5,43.5 C 18.9017,43.2281 23.2351,43.5614 27.5,44.5C 29.7206,47.9432 30.0539,51.6099 28.5,55.5C 26.121,57.0419 23.4543,57.7086 20.5,57.5C 12.4343,58.0679 9.60093,54.4013 12,46.5C 12.6979,45.3094 13.5313,44.3094 14.5,43.5 Z M 44.5,43.5 C 49.5649,43.219 54.5649,43.5524 59.5,44.5C 61.7206,47.9432 62.0539,51.6099 60.5,55.5C 59.9747,56.1924 59.3081,56.6924 58.5,57C 53.4456,57.781 48.4456,57.6143 43.5,56.5C 41.534,53.451 41.034,50.1177 42,46.5C 42.6979,45.3094 43.5313,44.3094 44.5,43.5 Z M 76.5,43.5 C 80.1817,43.3347 83.8484,43.5014 87.5,44C 89.6639,48.326 91.3305,52.826 92.5,57.5C 86.7711,57.7877 81.1045,57.4544 75.5,56.5C 73.534,53.451 73.034,50.1177 74,46.5C 74.6979,45.3094 75.5313,44.3094 76.5,43.5 Z M 18.5,80.5 C 27.8504,80.3654 30.517,84.532 26.5,93C 17.9562,96.3224 14.1229,93.4891 15,84.5C 15.6897,82.6498 16.8564,81.3164 18.5,80.5 Z M 74.5,80.5 C 83.8504,80.3654 86.517,84.532 82.5,93C 73.9562,96.3224 70.1229,93.4891 71,84.5C 71.6897,82.6498 72.8564,81.3164 74.5,80.5 Z"/></g>
<g><path style="opacity:0.897" fill="black" d="M 10.5,39.5 C 17.5581,39.203 24.5581,39.5363 31.5,40.5C 32.1924,41.0253 32.6924,41.6919 33,42.5C 33.7876,48.2195 33.6209,53.8862 32.5,59.5C 31.9747,60.1924 31.3081,60.6924 30.5,61C 23.4495,61.7968 16.4495,61.6301 9.5,60.5C 8.80762,59.9747 8.30762,59.3081 8,58.5C 7.33333,53.1667 7.33333,47.8333 8,42.5C 8.69794,41.3094 9.53128,40.3094 10.5,39.5 Z M 14.5,43.5 C 13.5313,44.3094 12.6979,45.3094 12,46.5C 9.60093,54.4013 12.4343,58.0679 20.5,57.5C 23.4543,57.7086 26.121,57.0419 28.5,55.5C 30.0539,51.6099 29.7206,47.9432 27.5,44.5C 23.2351,43.5614 18.9017,43.2281 14.5,43.5 Z"/></g>
<g><path style="opacity:0.902" fill="black" d="M 40.5,39.5 C 48.2233,39.1996 55.8899,39.5329 63.5,40.5C 64.1924,41.0253 64.6924,41.6919 65,42.5C 65.7876,48.2195 65.6209,53.8862 64.5,59.5C 63.9747,60.1924 63.3081,60.6924 62.5,61C 54.7837,61.8001 47.1171,61.6334 39.5,60.5C 38.8076,59.9747 38.3076,59.3081 38,58.5C 37.3333,53.1667 37.3333,47.8333 38,42.5C 38.6979,41.3094 39.5313,40.3094 40.5,39.5 Z M 44.5,43.5 C 43.5313,44.3094 42.6979,45.3094 42,46.5C 41.034,50.1177 41.534,53.451 43.5,56.5C 48.4456,57.6143 53.4456,57.781 58.5,57C 59.3081,56.6924 59.9747,56.1924 60.5,55.5C 62.0539,51.6099 61.7206,47.9432 59.5,44.5C 54.5649,43.5524 49.5649,43.219 44.5,43.5 Z"/></g>
</svg>
