<?xml version="1.0" encoding="UTF-8"?>
<!DOCTYPE svg PUBLIC "-//W3C//DTD SVG 1.1//EN" "http://www.w3.org/Graphics/SVG/1.1/DTD/svg11.dtd">
<svg xmlns="http://www.w3.org/2000/svg" version="1.1" width="100px" height="100px" style="shape-rendering:geometricPrecision; text-rendering:geometricPrecision; image-rendering:optimizeQuality; fill-rule:evenodd; clip-rule:evenodd" xmlns:xlink="http://www.w3.org/1999/xlink">
<g><path style="opacity:0.797" fill="black" d="M 39.5,3.5 C 67.9223,0.452161 86.4223,12.4522 95,39.5C 95.4988,43.4862 95.6655,47.4862 95.5,51.5C 93.549,51.7733 92.049,51.1066 91,49.5C 87.2396,19.7425 70.4063,6.24249 40.5,9C 16.5212,16.7683 6.02119,33.2683 9,58.5C 14.7264,79.0645 28.2264,89.7312 49.5,90.5C 62.2584,90.2875 72.9251,85.4542 81.5,76C 76.1771,75.5006 70.8437,75.334 65.5,75.5C 65.5,74.1667 65.5,72.8333 65.5,71.5C 73.5,71.5 81.5,71.5 89.5,71.5C 89.5,79.5 89.5,87.5 89.5,95.5C 88.1667,95.5 86.8333,95.5 85.5,95.5C 85.666,90.1563 85.4994,84.8229 85,79.5C 70.475,95.1735 52.975,99.6735 32.5,93C 7.17112,80.1672 -1.66221,60.0006 6,32.5C 12.7581,17.5646 23.9247,7.89792 39.5,3.5 Z"/></g>
<g><path style="opacity:0.926" fill="black" d="M 47.5,17.5 C 48.8333,17.5 50.1667,17.5 51.5,17.5C 51.1686,26.1922 51.502,34.8589 52.5,43.5C 53.8333,44.1667 54.8333,45.1667 55.5,46.5C 61.4632,47.4959 67.4632,47.8293 73.5,47.5C 73.5,48.8333 73.5,50.1667 73.5,51.5C 67.4632,51.1707 61.4632,51.5041 55.5,52.5C 54.2706,54.9184 52.2706,55.9184 49.5,55.5C 47.3066,55.6738 45.4733,55.0071 44,53.5C 43.3333,50.8333 43.3333,48.1667 44,45.5C 44.6891,44.6433 45.5224,43.9767 46.5,43.5C 47.498,34.8589 47.8314,26.1922 47.5,17.5 Z"/></g>
</svg>
