<?xml version="1.0" encoding="UTF-8"?>
<!DOCTYPE svg PUBLIC "-//W3C//DTD SVG 1.1//EN" "http://www.w3.org/Graphics/SVG/1.1/DTD/svg11.dtd">
<svg xmlns="http://www.w3.org/2000/svg" version="1.1" width="100px" height="100px" style="shape-rendering:geometricPrecision; text-rendering:geometricPrecision; image-rendering:optimizeQuality; fill-rule:evenodd; clip-rule:evenodd" xmlns:xlink="http://www.w3.org/1999/xlink">
<g><path style="opacity:0.984" fill="black" d="M 20.5,-0.5 C 23.8333,-0.5 27.1667,-0.5 30.5,-0.5C 31.388,2.05449 31.7214,4.72116 31.5,7.5C 43.5,7.5 55.5,7.5 67.5,7.5C 67.2786,4.72116 67.612,2.05449 68.5,-0.5C 71.8333,-0.5 75.1667,-0.5 78.5,-0.5C 79.388,2.05449 79.7214,4.72116 79.5,7.5C 84.7616,7.19532 89.9283,7.52865 95,8.5C 95.6667,37.1667 95.6667,65.8333 95,94.5C 79.906,95.1629 64.7393,95.4962 49.5,95.5C 34.2607,95.4962 19.094,95.1629 4,94.5C 3.33333,65.8333 3.33333,37.1667 4,8.5C 9.07172,7.52865 14.2384,7.19532 19.5,7.5C 19.2786,4.72116 19.612,2.05449 20.5,-0.5 Z M 23.5,3.5 C 24.8333,3.5 26.1667,3.5 27.5,3.5C 27.5,7.5 27.5,11.5 27.5,15.5C 26.1667,15.5 24.8333,15.5 23.5,15.5C 23.5,11.5 23.5,7.5 23.5,3.5 Z M 71.5,3.5 C 72.8333,3.5 74.1667,3.5 75.5,3.5C 75.5,7.5 75.5,11.5 75.5,15.5C 74.1667,15.5 72.8333,15.5 71.5,15.5C 71.5,11.5 71.5,7.5 71.5,3.5 Z M 7.5,11.5 C 11.5,11.5 15.5,11.5 19.5,11.5C 19.3367,13.8568 19.5034,16.1902 20,18.5C 23.6667,19.8333 27.3333,19.8333 31,18.5C 31.4966,16.1902 31.6633,13.8568 31.5,11.5C 43.5,11.5 55.5,11.5 67.5,11.5C 67.3367,13.8568 67.5034,16.1902 68,18.5C 71.6667,19.8333 75.3333,19.8333 79,18.5C 79.4966,16.1902 79.6633,13.8568 79.5,11.5C 83.5,11.5 87.5,11.5 91.5,11.5C 91.5,16.1667 91.5,20.8333 91.5,25.5C 63.5,25.5 35.5,25.5 7.5,25.5C 7.5,20.8333 7.5,16.1667 7.5,11.5 Z M 7.5,29.5 C 35.5,29.5 63.5,29.5 91.5,29.5C 91.5,50.1667 91.5,70.8333 91.5,91.5C 63.5,91.5 35.5,91.5 7.5,91.5C 7.5,70.8333 7.5,50.1667 7.5,29.5 Z M 23.5,41.5 C 26.8333,41.5 30.1667,41.5 33.5,41.5C 33.5,44.8333 33.5,48.1667 33.5,51.5C 30.1667,51.5 26.8333,51.5 23.5,51.5C 23.5,48.1667 23.5,44.8333 23.5,41.5 Z M 37.5,41.5 C 40.8333,41.5 44.1667,41.5 47.5,41.5C 47.5,44.8333 47.5,48.1667 47.5,51.5C 44.1667,51.5 40.8333,51.5 37.5,51.5C 37.5,48.1667 37.5,44.8333 37.5,41.5 Z M 51.5,41.5 C 54.8333,41.5 58.1667,41.5 61.5,41.5C 61.5,44.8333 61.5,48.1667 61.5,51.5C 58.1667,51.5 54.8333,51.5 51.5,51.5C 51.5,48.1667 51.5,44.8333 51.5,41.5 Z M 65.5,41.5 C 68.8333,41.5 72.1667,41.5 75.5,41.5C 75.5,44.8333 75.5,48.1667 75.5,51.5C 72.1667,51.5 68.8333,51.5 65.5,51.5C 65.5,48.1667 65.5,44.8333 65.5,41.5 Z M 23.5,55.5 C 26.8333,55.5 30.1667,55.5 33.5,55.5C 33.5,58.8333 33.5,62.1667 33.5,65.5C 30.1667,65.5 26.8333,65.5 23.5,65.5C 23.5,62.1667 23.5,58.8333 23.5,55.5 Z M 37.5,55.5 C 40.8333,55.5 44.1667,55.5 47.5,55.5C 47.5,58.8333 47.5,62.1667 47.5,65.5C 44.1667,65.5 40.8333,65.5 37.5,65.5C 37.5,62.1667 37.5,58.8333 37.5,55.5 Z M 51.5,55.5 C 54.8333,55.5 58.1667,55.5 61.5,55.5C 61.5,58.8333 61.5,62.1667 61.5,65.5C 58.1667,65.5 54.8333,65.5 51.5,65.5C 51.5,62.1667 51.5,58.8333 51.5,55.5 Z M 65.5,55.5 C 68.8333,55.5 72.1667,55.5 75.5,55.5C 75.5,58.8333 75.5,62.1667 75.5,65.5C 72.1667,65.5 68.8333,65.5 65.5,65.5C 65.5,62.1667 65.5,58.8333 65.5,55.5 Z M 23.5,69.5 C 26.8333,69.5 30.1667,69.5 33.5,69.5C 33.5,72.8333 33.5,76.1667 33.5,79.5C 30.1667,79.5 26.8333,79.5 23.5,79.5C 23.5,76.1667 23.5,72.8333 23.5,69.5 Z M 37.5,69.5 C 40.8333,69.5 44.1667,69.5 47.5,69.5C 47.5,72.8333 47.5,76.1667 47.5,79.5C 44.1667,79.5 40.8333,79.5 37.5,79.5C 37.5,76.1667 37.5,72.8333 37.5,69.5 Z M 51.5,69.5 C 54.8333,69.5 58.1667,69.5 61.5,69.5C 61.5,72.8333 61.5,76.1667 61.5,79.5C 58.1667,79.5 54.8333,79.5 51.5,79.5C 51.5,76.1667 51.5,72.8333 51.5,69.5 Z M 65.5,69.5 C 68.8333,69.5 72.1667,69.5 75.5,69.5C 75.5,72.8333 75.5,76.1667 75.5,79.5C 72.1667,79.5 68.8333,79.5 65.5,79.5C 65.5,76.1667 65.5,72.8333 65.5,69.5 Z"/></g>
<g><path style="opacity:1" fill="black" d="M 19.5,37.5 C 39.5,37.5 59.5,37.5 79.5,37.5C 79.5,52.8333 79.5,68.1667 79.5,83.5C 59.5,83.5 39.5,83.5 19.5,83.5C 19.5,68.1667 19.5,52.8333 19.5,37.5 Z M 23.5,41.5 C 23.5,44.8333 23.5,48.1667 23.5,51.5C 26.8333,51.5 30.1667,51.5 33.5,51.5C 33.5,48.1667 33.5,44.8333 33.5,41.5C 30.1667,41.5 26.8333,41.5 23.5,41.5 Z M 37.5,41.5 C 37.5,44.8333 37.5,48.1667 37.5,51.5C 40.8333,51.5 44.1667,51.5 47.5,51.5C 47.5,48.1667 47.5,44.8333 47.5,41.5C 44.1667,41.5 40.8333,41.5 37.5,41.5 Z M 51.5,41.5 C 51.5,44.8333 51.5,48.1667 51.5,51.5C 54.8333,51.5 58.1667,51.5 61.5,51.5C 61.5,48.1667 61.5,44.8333 61.5,41.5C 58.1667,41.5 54.8333,41.5 51.5,41.5 Z M 65.5,41.5 C 65.5,44.8333 65.5,48.1667 65.5,51.5C 68.8333,51.5 72.1667,51.5 75.5,51.5C 75.5,48.1667 75.5,44.8333 75.5,41.5C 72.1667,41.5 68.8333,41.5 65.5,41.5 Z M 23.5,55.5 C 23.5,58.8333 23.5,62.1667 23.5,65.5C 26.8333,65.5 30.1667,65.5 33.5,65.5C 33.5,62.1667 33.5,58.8333 33.5,55.5C 30.1667,55.5 26.8333,55.5 23.5,55.5 Z M 37.5,55.5 C 37.5,58.8333 37.5,62.1667 37.5,65.5C 40.8333,65.5 44.1667,65.5 47.5,65.5C 47.5,62.1667 47.5,58.8333 47.5,55.5C 44.1667,55.5 40.8333,55.5 37.5,55.5 Z M 51.5,55.5 C 51.5,58.8333 51.5,62.1667 51.5,65.5C 54.8333,65.5 58.1667,65.5 61.5,65.5C 61.5,62.1667 61.5,58.8333 61.5,55.5C 58.1667,55.5 54.8333,55.5 51.5,55.5 Z M 65.5,55.5 C 65.5,58.8333 65.5,62.1667 65.5,65.5C 68.8333,65.5 72.1667,65.5 75.5,65.5C 75.5,62.1667 75.5,58.8333 75.5,55.5C 72.1667,55.5 68.8333,55.5 65.5,55.5 Z M 23.5,69.5 C 23.5,72.8333 23.5,76.1667 23.5,79.5C 26.8333,79.5 30.1667,79.5 33.5,79.5C 33.5,76.1667 33.5,72.8333 33.5,69.5C 30.1667,69.5 26.8333,69.5 23.5,69.5 Z M 37.5,69.5 C 37.5,72.8333 37.5,76.1667 37.5,79.5C 40.8333,79.5 44.1667,79.5 47.5,79.5C 47.5,76.1667 47.5,72.8333 47.5,69.5C 44.1667,69.5 40.8333,69.5 37.5,69.5 Z M 51.5,69.5 C 51.5,72.8333 51.5,76.1667 51.5,79.5C 54.8333,79.5 58.1667,79.5 61.5,79.5C 61.5,76.1667 61.5,72.8333 61.5,69.5C 58.1667,69.5 54.8333,69.5 51.5,69.5 Z M 65.5,69.5 C 65.5,72.8333 65.5,76.1667 65.5,79.5C 68.8333,79.5 72.1667,79.5 75.5,79.5C 75.5,76.1667 75.5,72.8333 75.5,69.5C 72.1667,69.5 68.8333,69.5 65.5,69.5 Z"/></g>
</svg>
