<?xml version="1.0" encoding="UTF-8"?>
<!DOCTYPE svg PUBLIC "-//W3C//DTD SVG 1.1//EN" "http://www.w3.org/Graphics/SVG/1.1/DTD/svg11.dtd">
<svg xmlns="http://www.w3.org/2000/svg" version="1.1" width="50px" height="50px" style="shape-rendering:geometricPrecision; text-rendering:geometricPrecision; image-rendering:optimizeQuality; fill-rule:evenodd; clip-rule:evenodd" xmlns:xlink="http://www.w3.org/1999/xlink">
<g><path style="opacity:0.726" fill="black" d="M -0.5,1.5 C 4.11816,2.30445 8.4515,3.97111 12.5,6.5C 16.2913,4.26917 20.2913,2.6025 24.5,1.5C 28.9238,2.87645 33.2571,4.54311 37.5,6.5C 41.3028,4.26237 45.3028,2.5957 49.5,1.5C 49.5,15.1667 49.5,28.8333 49.5,42.5C 45.3988,44.2995 41.2321,45.9662 37,47.5C 32.8975,46.1165 28.8975,44.4499 25,42.5C 20.9819,44.5943 16.8152,46.261 12.5,47.5C 8.05502,46.1103 3.72169,44.4437 -0.5,42.5C -0.5,28.8333 -0.5,15.1667 -0.5,1.5 Z M 23.5,4.5 C 28.035,6.01506 32.535,7.68173 37,9.5C 40.3272,8.58753 43.4938,7.2542 46.5,5.5C 47.6658,16.8187 47.8325,28.152 47,39.5C 43.9123,41.2941 40.7456,42.9608 37.5,44.5C 33.2571,42.5431 28.9238,40.8764 24.5,39.5C 20.2913,40.6025 16.2913,42.2692 12.5,44.5C 9.16667,42.8333 5.83333,41.1667 2.5,39.5C 1.16667,28.1667 1.16667,16.8333 2.5,5.5C 9.8463,10.9918 16.8463,10.6585 23.5,4.5 Z"/></g>
<g><path style="opacity:0.707" fill="black" d="M 4.5,10.5 C 6.33702,10.6395 6.67036,11.3061 5.5,12.5C 4.70245,12.0431 4.36912,11.3764 4.5,10.5 Z"/></g>
<g><path style="opacity:0.677" fill="black" d="M 27.5,12.5 C 28.4271,10.5241 29.7605,10.1908 31.5,11.5C 30.3112,12.4287 28.9778,12.762 27.5,12.5 Z"/></g>
<g><path style="opacity:0.473" fill="black" d="M 33.5,10.5 C 34.5,10.5 35.5,10.5 36.5,10.5C 36.5,11.5 36.5,12.5 36.5,13.5C 33.5065,13.8543 32.5065,12.8543 33.5,10.5 Z"/></g>
<g><path style="opacity:0.698" fill="black" d="M 27.5,12.5 C 25.1496,14.2133 24.1496,16.5466 24.5,19.5C 21.7508,19.2739 19.0841,19.6072 16.5,20.5C 15.6143,19.675 15.281,18.675 15.5,17.5C 16.5,17.5 17.5,17.5 18.5,17.5C 18.5,16.1667 18.5,14.8333 18.5,13.5C 21.1569,13.838 23.4902,13.1713 25.5,11.5C 26.1835,11.8627 26.8501,12.1961 27.5,12.5 Z"/></g>
<g><path style="opacity:0.43" fill="black" d="M 41.5,15.5 C 39.6536,15.7778 38.3202,15.1112 37.5,13.5C 38.6888,12.5713 40.0222,12.238 41.5,12.5C 41.5,13.5 41.5,14.5 41.5,15.5 Z"/></g>
<g><path style="opacity:0.527" fill="black" d="M 6.5,13.5 C 7.5,13.5 8.5,13.5 9.5,13.5C 9.5,14.5 9.5,15.5 9.5,16.5C 8.5,16.5 7.5,16.5 6.5,16.5C 6.5,15.5 6.5,14.5 6.5,13.5 Z"/></g>
<g><path style="opacity:0.475" fill="black" d="M 41.5,15.5 C 42.5,15.5 43.5,15.5 44.5,15.5C 43.5,20.8333 42.5,20.8333 41.5,15.5 Z"/></g>
<g><path style="opacity:0.475" fill="black" d="M 10.5,16.5 C 12.3588,16.4609 13.6921,17.2942 14.5,19C 13.2068,19.49 11.8734,19.6567 10.5,19.5C 10.5,18.5 10.5,17.5 10.5,16.5 Z"/></g>
<g><path style="opacity:0.525" fill="black" d="M 42.5,20.5 C 43.5,20.5 44.5,20.5 45.5,20.5C 45.5,21.5 45.5,22.5 45.5,23.5C 44.5,23.5 43.5,23.5 42.5,23.5C 42.5,22.5 42.5,21.5 42.5,20.5 Z"/></g>
<g><path style="opacity:0.477" fill="black" d="M 43.5,24.5 C 45.1042,25.287 45.7709,26.6203 45.5,28.5C 44.5,28.5 43.5,28.5 42.5,28.5C 42.4326,27.0413 42.7659,25.7079 43.5,24.5 Z"/></g>
<g><path style="opacity:0.698" fill="black" d="M 42.5,29.5 C 43.4778,29.811 44.1445,30.4777 44.5,31.5C 42.8287,33.5098 42.162,35.8431 42.5,38.5C 39.5,38.5 36.5,38.5 33.5,38.5C 33.5,37.5 33.5,36.5 33.5,35.5C 34.5,35.5 35.5,35.5 36.5,35.5C 36.5,34.5 36.5,33.5 36.5,32.5C 39.3202,32.913 41.3202,31.913 42.5,29.5 Z"/></g>
<g><path style="opacity:0.687" fill="black" d="M 14.5,33.5 C 15.5,33.5 16.5,33.5 17.5,33.5C 17.5,34.5 17.5,35.5 17.5,36.5C 16.1667,36.5 14.8333,36.5 13.5,36.5C 13.5,37.8333 13.5,39.1667 13.5,40.5C 11.5,40.5 9.5,40.5 7.5,40.5C 7.5,38.5 7.5,36.5 7.5,34.5C 10.0593,34.8016 12.3926,34.4682 14.5,33.5 Z"/></g>
<g><path style="opacity:0.473" fill="black" d="M 18.5,33.5 C 19.9778,33.238 21.3112,33.5713 22.5,34.5C 20.5365,37.1939 19.2032,36.8606 18.5,33.5 Z"/></g>
<g><path style="opacity:0.474" fill="black" d="M 23.5,34.5 C 24.9778,34.238 26.3112,34.5713 27.5,35.5C 25.5365,38.1939 24.2032,37.8606 23.5,34.5 Z"/></g>
<g><path style="opacity:0.475" fill="black" d="M 28.5,35.5 C 33.8333,36.5 33.8333,37.5 28.5,38.5C 28.5,37.5 28.5,36.5 28.5,35.5 Z"/></g>
</svg>
