<?xml version="1.0" encoding="utf-8"?>
<!-- Generator: Adobe Illustrator 26.4.1, SVG Export Plug-In . SVG Version: 6.00 Build 0)  -->
<svg version="1.1" id="Слой_1" xmlns="http://www.w3.org/2000/svg" xmlns:xlink="http://www.w3.org/1999/xlink" x="0px" y="0px"
	 viewBox="0 0 112.3 123.9" style="enable-background:new 0 0 112.3 123.9;" xml:space="preserve">
<style type="text/css">
	.st0{font-family:'MyriadPro-Regular';}
	.st1{font-size:18px;}
	.st2{font-size:8px;}
	.st3{font-size:10px;}
</style>
<g id="Слой_5">
</g>
<path d="M90.2,45.1c-0.3-1.2-0.5-1.9-1-3.2c-0.3-0.6-0.7-1.3-3.5-6.3c-1.8-3.2-1.9-3.5-2.6-4.7c-1.5-3-1.9-4.1-3.3-6.3
	c-0.8-1.2-1.5-2.2-2.6-4.1c-1.2-2.2-1-2.3-1.4-2.7c-2.4-2-8.4,2.5-11.4,4.7c-2.5,1.8-4.3,3.2-6.2,5.7c-1.2,1.6-3.3,4.4-4.1,8.7
	c-1.3,6.8,1.6,12.2,2.2,13.2c0.5,0.8,2.2,3.8,5.4,6.1c1.2,0.8,3.6,2.2,7.6,4.9c1.3,0.8,2.3,1.5,2.2,2.4c0,0.6-0.5,1-3.4,3.2
	c-2.4,1.8-2.8,2-3.3,2.1c-1.2,0.3-2.5,0-4.2-0.9c-1.3-0.7-2.6-1.7-3.6-2.7c-0.2-0.4-0.5-0.7-0.9-0.9c-2.8-2.9-4.5-6-4.5-6
	c-3-5.5-4.3-12.2-3.5-16.5c0.3-1.9,0.4-3.8,0.9-5.6c0.5-1.6,1.1-3,0.5-4.2c-0.3-0.7-1-1-1.2-1.1c-6.7-2.9-18.1-6.6-18.1-6.6
	c-1.8-0.6-4.1-1.4-6.4-2.3c-2.4-0.6-4.7-1.8-7-2.4c-2.5-0.6-4.8-2.1-7.4-2.4c0,0.2,0,0.6,0,1c0,1.7-0.2,2,0.1,2.7
	c0.3,0.5,0.8,0.8,1.1,0.9c6,2.5,9.8,3.5,9.8,3.5c0.9,0.2,3.5,1.2,8.7,3.1c2.6,0.9,3.5,1.3,6.1,2.2c1.3,0.5,2.3,0.8,3.9,1.4
	c1.6,0.6,3,1.1,3.9,1.5c2,0.9,2.2,1.3,2.2,1.3c0.5,0.9,0.1,1.7-0.3,3.8c-0.5,2.6-0.9,4.1-0.9,4.8c-1-0.5-3.2-1.1-4.3-1.4
	c-3-0.9-8.5-2.8-19.1-7.4c-8.9-3.9-10.4-4.1-10.6-3.8v0.1c-0.1,0.1-0.1,0.4,0,2c0,1.8,0,2,0.2,2.2c0.4,0.7,1.1,0.7,2.7,1.3
	c1.1,0.4,15.3,6,20.3,7.8c2,0.7,4.1,1.4,5.9,2c3.4,1.2,6.3,2.1,6.3,2.1s-0.2,0-0.4-0.1v0.9c0,1.5,2.3,8.2,2.8,9.8
	c0,0.1,0.1,0.4,0.3,0.8c0.1,0.1,0.1,0.3,0.2,0.3v0.1c0.1,0.1,0.2,0.2,0.2,0.3l0,0c-0.1-0.2-0.2-0.3-0.2-0.4L9.6,45
	c0,0.5-0.1,1.2-0.1,2.1c-0.1,1.5-0.1,2.2-0.1,2.3c0.3,1.5,2.6,1.9,5.8,3c1.7,0.6,3.4,1.4,5.2,2c4.3,1.4,8.5,3.1,16.4,6.3
	c1.8,0.7,3.6,1.5,5.4,2.2c2.1,0.6,4.2,1.6,6.3,2.3c2.8,1,5.5,2.2,8.2,3.5c2.8,1.3,5.6,2.6,8.6,3.5c0.9,0.3,1.8,0.5,2.6,0.5
	c0.7-0.6,1.6-1.4,2.8-2.5c2-1.9,3.4-3.4,6.2-6.5c1.4-1.5,2.5-2.7,3.1-3.4c-0.8-0.1-1.9-0.3-3.2-0.7c-7.6-2.1-12.3-6.6-13.7-8
	c-2.2-2.2-3.8-3.7-4.6-6.5c-1.3-4.2,0-8.1,0.5-9.5c1.1-3.3,3-5.4,3.8-6.2c0.5-0.5,1.8-1.9,3.9-3.1c2.6-1.5,4.7-2.8,6.9-2
	c1.7,0.6,2.9,2.4,4,4.1c0.5,0.8,0.9,1.5,1.2,2.2c3.2,6.6,2.8,6.1,3.5,7.2c1,1.7,3.7,5.9,4.6,8c0.1,0.3,0.4,1,0.2,1.7
	c-0.2,0.6-0.7,1-0.8,1.1c-0.8,0.6-1.9,0.5-2.7,0.2c-2.3-1-1.7-4.6-4-5.5c-0.5-0.2-1.6-0.5-2.8-0.5c-0.5,0-0.8,0-1,0
	c-0.8,0.1-5.3,0-5.7,0c-2.7-0.1-3.7-0.2-4,0.5c-0.2,0.4-0.2,1.1-0.1,1.8c0,0.7,0.1,1.1,0.2,1.4c0.4,0.7,1.6,0.5,4.1,0.4
	c0.8,0,2.2,0,5,0.1c1.1,0,1.6,0.1,2.2,0.5c0.8,0.6,0.6,1.3,1.6,2.4c0.9,1,1.9,1.5,2.5,1.8c0.3,0.2,0.9,0.4,1.7,0.6
	c1.7,0.3,3-0.1,3.3-0.3c0.3-0.1,1.5-0.6,2.6-1.7c0.6-0.6,1.5-1.6,1.6-3C90.6,46.8,90.6,46.5,90.2,45.1z"/>
<path d="M29.3,45.9"/>
<path d="M-190.2,131"/>
<g id="Слой_2_00000169537429776180571950000005433414465974358461_">
</g>
<g id="Слой_3_00000127750871866649966720000011375036351867934100_">
</g>
<text transform="matrix(1 0 0 1 23.3072 89.3755)"><tspan x="0" y="0" class="st0 st1">PEGASUS</tspan><tspan x="0" y="12" class="st0 st2">        </tspan><tspan x="13.6" y="12" class="st0 st3">FLY TO FLY</tspan></text>
</svg>
