<?xml version="1.0" encoding="UTF-8"?>
<!DOCTYPE svg PUBLIC "-//W3C//DTD SVG 1.1//EN" "http://www.w3.org/Graphics/SVG/1.1/DTD/svg11.dtd">
<svg xmlns="http://www.w3.org/2000/svg" version="1.1" width="100px" height="100px" style="shape-rendering:geometricPrecision; text-rendering:geometricPrecision; image-rendering:optimizeQuality; fill-rule:evenodd; clip-rule:evenodd" xmlns:xlink="http://www.w3.org/1999/xlink">
<g><path style="opacity:0.938" fill="#fefffe" d="M 11.5,7.5 C 13.8273,7.24707 15.8273,7.91374 17.5,9.5C 20.1667,6.83333 22.8333,6.83333 25.5,9.5C 28.1667,6.83333 30.8333,6.83333 33.5,9.5C 36.1667,6.83333 38.8333,6.83333 41.5,9.5C 44.1667,6.83333 46.8333,6.83333 49.5,9.5C 52.1667,6.83333 54.8333,6.83333 57.5,9.5C 60.1667,6.83333 62.8333,6.83333 65.5,9.5C 68.1667,6.83333 70.8333,6.83333 73.5,9.5C 76.1667,6.83333 78.8333,6.83333 81.5,9.5C 83.1727,7.91374 85.1727,7.24707 87.5,7.5C 87.5,8.83333 87.5,10.1667 87.5,11.5C 88.8333,11.5 90.1667,11.5 91.5,11.5C 90.201,15.3705 89.5343,19.3705 89.5,23.5C 95.3233,23.798 95.8233,25.4647 91,28.5C 88.8601,37.5578 89.0267,46.5578 91.5,55.5C 89.5858,67.3779 88.9191,79.3779 89.5,91.5C 79.5,91.5 69.5,91.5 59.5,91.5C 60.0809,79.3779 59.4142,67.3779 57.5,55.5C 59.2861,51.3077 58.2861,47.9744 54.5,45.5C 53.5344,43.604 53.2011,41.604 53.5,39.5C 56.8333,39.5 60.1667,39.5 63.5,39.5C 63.5,44.1667 63.5,48.8333 63.5,53.5C 70.5,53.5 77.5,53.5 84.5,53.5C 84.5,46.8333 84.5,40.1667 84.5,33.5C 60.8333,33.5 37.1667,33.5 13.5,33.5C 13.5,40.1667 13.5,46.8333 13.5,53.5C 20.8333,53.5 28.1667,53.5 35.5,53.5C 35.5,48.8333 35.5,44.1667 35.5,39.5C 38.8333,39.5 42.1667,39.5 45.5,39.5C 45.7989,41.604 45.4656,43.604 44.5,45.5C 40.7139,47.9744 39.7139,51.3077 41.5,55.5C 39.5858,67.3779 38.9191,79.3779 39.5,91.5C 29.5,91.5 19.5,91.5 9.5,91.5C 10.0809,79.3779 9.41422,67.3779 7.5,55.5C 9.53207,47.6352 10.0321,39.6352 9,31.5C 7.28453,29.0646 6.11786,26.3979 5.5,23.5C 6.83333,23.5 8.16667,23.5 9.5,23.5C 9.4657,19.3705 8.79903,15.3705 7.5,11.5C 8.83333,11.5 10.1667,11.5 11.5,11.5C 11.5,10.1667 11.5,8.83333 11.5,7.5 Z M 13.5,15.5 C 37.5023,15.3334 61.5023,15.5 85.5,16C 84.565,18.3806 84.2317,20.8806 84.5,23.5C 60.8333,23.5 37.1667,23.5 13.5,23.5C 13.5,20.8333 13.5,18.1667 13.5,15.5 Z M 13.5,27.5 C 37.5093,27.1669 61.5093,27.5003 85.5,28.5C 73.5,28.8333 61.5,29.1667 49.5,29.5C 37.1476,29.499 25.1476,28.8324 13.5,27.5 Z M 21.5,43.5 C 23.604,43.2011 25.604,43.5344 27.5,44.5C 26.5,44.8333 25.5,45.1667 24.5,45.5C 22.9704,45.3601 21.9704,44.6935 21.5,43.5 Z M 71.5,43.5 C 73.604,43.2011 75.604,43.5344 77.5,44.5C 76.5,44.8333 75.5,45.1667 74.5,45.5C 72.9704,45.3601 71.9704,44.6935 71.5,43.5 Z M 13.5,57.5 C 20.8333,57.5 28.1667,57.5 35.5,57.5C 35.5,67.5 35.5,77.5 35.5,87.5C 33.5,87.5 31.5,87.5 29.5,87.5C 31.2915,81.3008 31.7915,74.9675 31,68.5C 26.6667,61.8333 22.3333,61.8333 18,68.5C 17.2085,74.9675 17.7085,81.3008 19.5,87.5C 17.5,87.5 15.5,87.5 13.5,87.5C 13.5,77.5 13.5,67.5 13.5,57.5 Z M 63.5,57.5 C 70.5,57.5 77.5,57.5 84.5,57.5C 84.5,67.5 84.5,77.5 84.5,87.5C 82.8333,87.5 81.1667,87.5 79.5,87.5C 81.2915,81.3008 81.7915,74.9675 81,68.5C 76.6667,61.8333 72.3333,61.8333 68,68.5C 67.2085,74.9675 67.7085,81.3008 69.5,87.5C 67.5,87.5 65.5,87.5 63.5,87.5C 63.5,77.5 63.5,67.5 63.5,57.5 Z M 23.5,68.5 C 24.7498,68.5774 25.5831,69.244 26,70.5C 26.5022,73.5131 27.0022,76.5131 27.5,79.5C 25.5,79.5 23.5,79.5 21.5,79.5C 22.0599,75.8068 22.7265,72.1402 23.5,68.5 Z M 73.5,68.5 C 74.7498,68.5774 75.5831,69.244 76,70.5C 76.5022,73.5131 77.0022,76.5131 77.5,79.5C 75.5,79.5 73.5,79.5 71.5,79.5C 72.0599,75.8068 72.7265,72.1402 73.5,68.5 Z M 23.5,83.5 C 24.5862,83.62 25.2528,84.2867 25.5,85.5C 25.1667,86.1667 24.8333,86.8333 24.5,87.5C 23.5713,86.3112 23.238,84.9778 23.5,83.5 Z M 73.5,83.5 C 74.5862,83.62 75.2528,84.2867 75.5,85.5C 75.1667,86.1667 74.8333,86.8333 74.5,87.5C 73.5713,86.3112 73.238,84.9778 73.5,83.5 Z"/></g>
<g><path style="opacity:0.766" fill="#fefffe" d="M 17.5,17.5 C 18.8333,17.5 20.1667,17.5 21.5,17.5C 21.5,18.8333 21.5,20.1667 21.5,21.5C 20.1667,21.5 18.8333,21.5 17.5,21.5C 17.5,20.1667 17.5,18.8333 17.5,17.5 Z"/></g>
<g><path style="opacity:0.766" fill="#fefffe" d="M 27.5,17.5 C 28.8333,17.5 30.1667,17.5 31.5,17.5C 31.5,18.8333 31.5,20.1667 31.5,21.5C 30.1667,21.5 28.8333,21.5 27.5,21.5C 27.5,20.1667 27.5,18.8333 27.5,17.5 Z"/></g>
<g><path style="opacity:0.766" fill="#fefffe" d="M 37.5,17.5 C 38.8333,17.5 40.1667,17.5 41.5,17.5C 41.5,18.8333 41.5,20.1667 41.5,21.5C 40.1667,21.5 38.8333,21.5 37.5,21.5C 37.5,20.1667 37.5,18.8333 37.5,17.5 Z"/></g>
<g><path style="opacity:0.766" fill="#fefffe" d="M 47.5,17.5 C 48.8333,17.5 50.1667,17.5 51.5,17.5C 51.5,18.8333 51.5,20.1667 51.5,21.5C 50.1667,21.5 48.8333,21.5 47.5,21.5C 47.5,20.1667 47.5,18.8333 47.5,17.5 Z"/></g>
<g><path style="opacity:0.766" fill="#fefffe" d="M 57.5,17.5 C 58.8333,17.5 60.1667,17.5 61.5,17.5C 61.5,18.8333 61.5,20.1667 61.5,21.5C 60.1667,21.5 58.8333,21.5 57.5,21.5C 57.5,20.1667 57.5,18.8333 57.5,17.5 Z"/></g>
<g><path style="opacity:0.766" fill="#fefffe" d="M 67.5,17.5 C 68.8333,17.5 70.1667,17.5 71.5,17.5C 71.5,18.8333 71.5,20.1667 71.5,21.5C 70.1667,21.5 68.8333,21.5 67.5,21.5C 67.5,20.1667 67.5,18.8333 67.5,17.5 Z"/></g>
<g><path style="opacity:0.766" fill="#fefffe" d="M 77.5,17.5 C 78.8333,17.5 80.1667,17.5 81.5,17.5C 81.5,18.8333 81.5,20.1667 81.5,21.5C 80.1667,21.5 78.8333,21.5 77.5,21.5C 77.5,20.1667 77.5,18.8333 77.5,17.5 Z"/></g>
<g><path style="opacity:1" fill="#fefffe" d="M 47.5,37.5 C 48.8333,37.5 50.1667,37.5 51.5,37.5C 51.5,39.5 51.5,41.5 51.5,43.5C 50.1667,43.5 48.8333,43.5 47.5,43.5C 47.5,41.5 47.5,39.5 47.5,37.5 Z"/></g>
<g><path style="opacity:0.971" fill="#fefffe" d="M 17.5,39.5 C 22.1667,39.5 26.8333,39.5 31.5,39.5C 31.5,42.8333 31.5,46.1667 31.5,49.5C 26.8333,49.5 22.1667,49.5 17.5,49.5C 17.5,46.1667 17.5,42.8333 17.5,39.5 Z M 21.5,43.5 C 21.9704,44.6935 22.9704,45.3601 24.5,45.5C 25.5,45.1667 26.5,44.8333 27.5,44.5C 25.604,43.5344 23.604,43.2011 21.5,43.5 Z"/></g>
<g><path style="opacity:0.971" fill="#fefffe" d="M 67.5,39.5 C 72.1667,39.5 76.8333,39.5 81.5,39.5C 81.5,42.8333 81.5,46.1667 81.5,49.5C 76.8333,49.5 72.1667,49.5 67.5,49.5C 67.5,46.1667 67.5,42.8333 67.5,39.5 Z M 71.5,43.5 C 71.9704,44.6935 72.9704,45.3601 74.5,45.5C 75.5,45.1667 76.5,44.8333 77.5,44.5C 75.604,43.5344 73.604,43.2011 71.5,43.5 Z"/></g>
</svg>
