<?xml version="1.0" encoding="UTF-8"?>
<!DOCTYPE svg PUBLIC "-//W3C//DTD SVG 1.1//EN" "http://www.w3.org/Graphics/SVG/1.1/DTD/svg11.dtd">
<svg xmlns="http://www.w3.org/2000/svg" version="1.1" width="100px" height="100px" style="shape-rendering:geometricPrecision; text-rendering:geometricPrecision; image-rendering:optimizeQuality; fill-rule:evenodd; clip-rule:evenodd" xmlns:xlink="http://www.w3.org/1999/xlink">
<g><path style="opacity:0.984" fill="#fefffe" d="M 13.5,5.5 C 37.5,5.5 61.5,5.5 85.5,5.5C 85.6666,29.5023 85.5,53.5023 85,77.5C 79.8333,82.6667 74.6667,87.8333 69.5,93C 50.8363,93.4999 32.1696,93.6666 13.5,93.5C 13.5,64.1667 13.5,34.8333 13.5,5.5 Z M 17.5,9.5 C 38.8333,9.5 60.1667,9.5 81.5,9.5C 81.5,30.8333 81.5,52.1667 81.5,73.5C 76.1667,73.5 70.8333,73.5 65.5,73.5C 65.5,78.8333 65.5,84.1667 65.5,89.5C 49.5,89.5 33.5,89.5 17.5,89.5C 17.5,62.8333 17.5,36.1667 17.5,9.5 Z M 69.5,77.5 C 72.1873,77.3359 74.854,77.5026 77.5,78C 75,80.5 72.5,83 70,85.5C 69.5026,82.854 69.3359,80.1873 69.5,77.5 Z"/></g>
</svg>
