<?xml version="1.0" encoding="UTF-8"?>
<!DOCTYPE svg PUBLIC "-//W3C//DTD SVG 1.1//EN" "http://www.w3.org/Graphics/SVG/1.1/DTD/svg11.dtd">
<svg xmlns="http://www.w3.org/2000/svg" version="1.1" width="100px" height="100px" style="shape-rendering:geometricPrecision; text-rendering:geometricPrecision; image-rendering:optimizeQuality; fill-rule:evenodd; clip-rule:evenodd" xmlns:xlink="http://www.w3.org/1999/xlink">
<g><path style="opacity:0.774" fill="#fefffe" d="M 99.5,26.5 C 99.5,28.1667 99.5,29.8333 99.5,31.5C 90.7235,37.9754 81.2235,43.3087 71,47.5C 65.5852,60.4362 59.4186,72.9362 52.5,85C 49.5347,87.3297 46.368,87.8297 43,86.5C 42.8333,85.3333 42.6667,84.1667 42.5,83C 44.1644,74.8543 45.331,66.6876 46,58.5C 34.9268,64.6382 23.0934,67.4715 10.5,67C 9.06919,66.5348 7.90252,65.7014 7,64.5C 4.72495,58.9553 2.22495,53.6219 -0.5,48.5C -0.5,46.5 -0.5,44.5 -0.5,42.5C 1.92625,40.7815 4.59291,40.2815 7.5,41C 11.1667,43.5 14.8333,46 18.5,48.5C 23.5,46.3333 28.5,44.1667 33.5,42C 29.3339,39.0825 25.0006,36.4159 20.5,34C 17.5178,31.8089 17.1845,29.4755 19.5,27C 22.0618,25.8591 24.7284,25.0257 27.5,24.5C 36.6243,26.7638 45.6243,29.4305 54.5,32.5C 62.3829,28.725 70.3829,25.225 78.5,22C 86.3588,20.2089 93.3588,21.7089 99.5,26.5 Z M 48.5,80.5 C 49.9084,70.4579 51.5751,60.4579 53.5,50.5C 44.308,54.2578 34.9746,57.7578 25.5,61C 22.5318,61.6936 19.5318,62.1936 16.5,62.5C 14.3066,62.6738 12.4733,62.0071 11,60.5C 8.65605,55.5022 6.65605,50.5022 5,45.5C 8.41196,48.1227 11.912,50.6227 15.5,53C 17.5,53.6667 19.5,53.6667 21.5,53C 40.8333,44.3333 60.1667,35.6667 79.5,27C 84.7683,25.932 89.7683,26.5987 94.5,29C 85.8183,34.3421 76.8183,39.1755 67.5,43.5C 62.0047,55.1579 56.5047,66.8245 51,78.5C 50.2917,79.3805 49.4584,80.0472 48.5,80.5 Z M 26.5,29.5 C 33.3959,31.0552 40.0626,33.2219 46.5,36C 43.6846,37.7213 40.6846,38.3879 37.5,38C 34.1667,36 30.8333,34 27.5,32C 26.7476,31.3292 26.4142,30.4959 26.5,29.5 Z"/></g>
</svg>
