<?xml version="1.0" encoding="UTF-8"?>
<!DOCTYPE svg PUBLIC "-//W3C//DTD SVG 1.1//EN" "http://www.w3.org/Graphics/SVG/1.1/DTD/svg11.dtd">
<svg xmlns="http://www.w3.org/2000/svg" version="1.1" width="60px" height="60px" style="shape-rendering:geometricPrecision; text-rendering:geometricPrecision; image-rendering:optimizeQuality; fill-rule:evenodd; clip-rule:evenodd" xmlns:xlink="http://www.w3.org/1999/xlink">
<g><path style="opacity:0.783" fill="#fefffe" d="M 46.5,7.5 C 48.5273,7.33788 50.5273,7.50454 52.5,8C 53.1222,9.56912 53.4555,11.2358 53.5,13C 51.5086,25.6238 49.0086,38.1238 46,50.5C 43.9361,51.5914 41.7695,51.7581 39.5,51C 37.2681,48.2651 34.6014,46.0984 31.5,44.5C 29.6841,45.8149 28.0175,47.3149 26.5,49C 24.8333,49.6667 23.1667,49.6667 21.5,49C 19.9332,44.8007 18.2665,40.6341 16.5,36.5C 13.0255,34.7333 9.52549,33.0666 6,31.5C 5.33333,29.5 5.33333,27.5 6,25.5C 19.6337,19.5956 33.1337,13.5956 46.5,7.5 Z M 47.5,12.5 C 48.1239,12.9169 48.4573,13.5836 48.5,14.5C 46.2694,25.153 44.1027,35.8197 42,46.5C 39.1667,43.6667 36.3333,40.8333 33.5,38C 30.7202,37.7308 28.5536,38.8975 27,41.5C 26.6753,39.4473 27.0087,37.4473 28,35.5C 33.2,30.6347 38.0334,25.4681 42.5,20C 41.1667,19.3333 39.8333,19.3333 38.5,20C 32.0662,23.9661 25.5662,27.7994 19,31.5C 16.5867,30.9761 14.4201,29.9761 12.5,28.5C 24.3676,23.3961 36.0343,18.0628 47.5,12.5 Z"/></g>
</svg>
