<?xml version="1.0" encoding="UTF-8"?>
<!DOCTYPE svg PUBLIC "-//W3C//DTD SVG 1.1//EN" "http://www.w3.org/Graphics/SVG/1.1/DTD/svg11.dtd">
<svg xmlns="http://www.w3.org/2000/svg" version="1.1" width="60px" height="60px" style="shape-rendering:geometricPrecision; text-rendering:geometricPrecision; image-rendering:optimizeQuality; fill-rule:evenodd; clip-rule:evenodd" xmlns:xlink="http://www.w3.org/1999/xlink">
<g><path style="opacity:0.957" fill="#fefffe" d="M 8.5,7.5 C 22.7454,7.17649 36.9121,7.50983 51,8.5C 51.8229,22.7415 51.6562,36.9082 50.5,51C 36.2585,51.8229 22.0918,51.6562 8,50.5C 7.18508,36.092 7.35175,21.7586 8.5,7.5 Z M 27.5,21.5 C 28.5832,21.5394 29.5832,21.8728 30.5,22.5C 31.4742,24.7427 31.8076,27.076 31.5,29.5C 34.4106,28.5902 36.4106,26.5902 37.5,23.5C 39.1667,22.1667 40.8333,22.1667 42.5,23.5C 41.1287,25.8567 39.7954,28.19 38.5,30.5C 39.2186,32.7277 40.552,34.561 42.5,36C 41.2341,36.3095 40.0674,36.8095 39,37.5C 36.8149,35.4598 34.3149,34.1264 31.5,33.5C 31.5,34.5 31.5,35.5 31.5,36.5C 26.4575,36.985 22.6242,34.985 20,30.5C 18.8333,28.1667 17.6667,25.8333 16.5,23.5C 17.723,22.3861 19.0563,22.2195 20.5,23C 25.1403,31.835 27.4736,31.335 27.5,21.5 Z"/></g>
</svg>
